PathFileType	4	(X/Y/Z)	RBDS002\RBDS002runT25.trc
DataRate	CameraRate	NumFrames	NumMarkers	Units	OrigDataRate	OrigDataStartFrame	OrigNumFrames
150.000000	150.000000	5	33	mm	150.000000	3937	4500
Frame#	Time	L.ASIS			L.Heel.Bottom			L.Heel.Lateral			L.Heel.Top			L.Iliac.Crest			L.MT1			L.MT5			L.PSIS			L.Shank.Bottom.Lateral			L.Shank.Bottom.Medial			L.Shank.Top.Lateral			L.Shank.Top.Medial			L.Thigh.Bottom.Lateral			L.Thigh.Bottom.Medial			L.Thigh.Top.Lateral			L.Thigh.Top.Medial			R.ASIS			R.ASY			R.Heel.Bottom			R.Heel.Lateral			R.Heel.Top			R.Iliac.Crest			R.MT1			R.MT5			R.PSIS			R.Shank.Bottom.Lateral			R.Shank.Bottom.Medial			R.Shank.Top.Lateral			R.Shank.Top.Medial			R.Thigh.Bottom.Lateral			R.Thigh.Bottom.Medial			R.Thigh.Top.Lateral			R.Thigh.Top.Medial			
		X1	Y1	Z1	X2	Y2	Z2	X3	Y3	Z3	X4	Y4	Z4	X5	Y5	Z5	X6	Y6	Z6	X7	Y7	Z7	X8	Y8	Z8	X9	Y9	Z9	X10	Y10	Z10	X11	Y11	Z11	X12	Y12	Z12	X13	Y13	Z13	X14	Y14	Z14	X15	Y15	Z15	X16	Y16	Z16	X17	Y17	Z17	X18	Y18	Z18	X19	Y19	Z19	X20	Y20	Z20	X21	Y21	Z21	X22	Y22	Z22	X23	Y23	Z23	X24	Y24	Z24	X25	Y25	Z25	X26	Y26	Z26	X27	Y27	Z27	X28	Y28	Z28	X29	Y29	Z29	X30	Y30	Z30	X31	Y31	Z31	X32	Y32	Z32	X33	Y33	Z33	

3938	26.24666666666667	2272.548849757759	1051.743871926757	862.3908102812787	2312.454446111149	33.91315535131005	928.1425868993853	2345.224944114973	42.53897176738788	882.3171253046512	2315.383642506023	83.56888576886367	917.7273868899111	2170.057639350704	1124.482235357193	810.2111366600403	2529.03264987285	96.33758819223378	978.506085092476	2510.13121208461	59.30927117381385	869.8426766671846	2083.60701126073	1067.792791865399	917.8188090018126	2366.582474093874	177.1572761913447	859.1622629622079	2324.145650014005	176.4855137313311	888.4748138025718	2354.376576158009	253.8882919882919	836.7840948752979	2311.08871560804	257.8951152349383	867.9115170735546	2321.423783774905	620.3850244722908	813.4182244142182	2268.242692710224	597.3976319022983	857.5757991388675	2264.257542432203	713.5580249139011	796.6930942464539	2215.887688597313	692.8088910282823	840.0593801859893	2262.894773539926	1026.443187684991	1080.996259124591	1765.404901093958	181.3251551468556	1043.21019112156	1653.371950678039	341.8429193249619	1019.029454848731	1667.442423734756	324.0989805275207	1061.314120201282	1704.082495666318	345.0026143528877	1026.342836652026	2185.956457409873	1114.957629820851	1121.891115004813	1741.614794003835	125.7417815921396	995.1123583489862	1707.357759735319	153.1903308409312	1098.673425157087	2083.509642895499	1065.04439307664	1007.105692718023	1793.340933253837	341.1432896041982	1089.55232140358	1774.817641207416	374.7660666347609	1050.493624004614	1854.411873669326	393.4089001722151	1102.910323102892	1836.03982912996	424.9873536495018	1062.954100571154	2108.611283584067	608.5974863170268	1107.298980987314	2065.318154955641	622.2629860499401	1048.486867539026	2110.372817337549	716.9957086427173	1128.380266053472	2068.575878036335	729.5150377093186	1073.163018501488	
3939	26.25333333333333	2273.404110192449	1047.669715553389	862.501766476929	2298.333129670919	33.42640421575827	929.4250841609676	2331.287296976639	41.62271546365143	883.6674911424889	2303.252390691364	83.08882387285119	920.0558602001693	2170.855649964512	1119.324808730514	809.9379495078955	2517.268455368813	87.4534536832229	980.0137109644036	2496.939148241695	53.35028892399203	870.4713314362867	2084.043732477271	1062.184507740622	918.0694368803061	2357.498410903761	172.2919283689709	861.1269660246966	2314.836893554962	172.6969895109166	890.029506578823	2347.235399299282	249.2082038862729	838.432295600463	2303.794680147928	254.3069474581139	869.1814798918714	2320.577231382441	615.7117206486124	814.4144324888607	2267.127895138928	592.9356386386092	858.3958960158869	2263.73231402515	709.0425651882707	797.4388352894447	2215.117533615624	688.5340181178543	840.7662597821159	2263.454848720705	1022.466313842564	1081.332000045049	1769.331461545428	184.8730625279474	1046.371780822017	1656.484122977715	344.071156149559	1018.005784590422	1670.531746021593	327.4785306585418	1060.807715113429	1707.172721533922	347.8240861513981	1025.503020276949	2184.782929713971	1109.943946901973	1122.07163546052	1746.211421301262	127.9501476492521	999.559854145857	1711.490588367721	157.8474910761514	1102.378648907354	2083.979592868111	1059.205947395493	1007.147158692741	1797.948803589224	343.494316796884	1089.978591301217	1780.419106504057	377.1780757618792	1050.505673257993	1860.141771223892	394.4572455099391	1103.197489535793	1842.77561219802	426.0088673941676	1062.797281843938	2115.192816154195	601.9348754775182	1107.956834597072	2072.266715670393	614.6885573960602	1048.706001980262	2114.967281598164	710.3899955141172	1128.761610572196	2073.213171989859	722.0215755397337	1073.302007125013	
3940	26.26	2274.000010427653	1043.268957798959	862.6598088289546	2283.574403904767	33.33234790617377	930.6234533856343	2316.75346799204	41.35337946919685	885.0185903098372	2290.410503273955	83.00132528111429	922.5119143732238	2171.552231263587	1113.887927446196	809.6005941404399	2504.639274619299	79.13392909656221	981.8781577824598	2483.121798640487	48.40529549788949	871.2442335133258	2084.282156144232	1056.381540209788	918.442882331034	2347.932607332362	167.820949376727	863.4757880020742	2305.020061212857	169.4109044068596	891.8857608896662	2339.758702861133	244.8594892655223	840.3834095860088	2296.182048233591	251.1500767267148	870.7153710218969	2319.8434800021	611.0671804576499	815.3090189569916	2266.080668745837	588.4190526505554	859.0181478911263	2263.243186743734	704.4857357199591	798.0064932086975	2214.289661232486	684.1543825157456	841.181525940174	2264.02904857509	1018.122128703462	1081.546685760763	1774.097174835306	187.9775627054629	1049.484012733367	1660.167693050617	345.5099905562087	1017.061998018446	1674.283162361186	330.0998123839143	1060.310866629661	1710.843585464363	349.9628722161605	1024.674231471517	2183.904520558416	1104.500565610112	1122.276676787281	1751.749303808257	129.655590975253	1004.013090559814	1716.604970500584	161.915935355211	1106.06802067683	2084.346351540558	1052.992469129985	1007.257507470396	1803.112548191326	345.4022203904549	1090.356586829729	1786.581247121674	379.0047116898158	1050.397560478926	1866.320695245246	395.1402243859863	1103.413330669873	1849.9666331321	426.5203147387534	1062.498489566602	2121.649583156846	595.2448580095574	1108.729263240137	2079.174363895139	607.0259157977265	1048.994513369747	2119.459164568148	703.7618300078146	1129.083758469935	2077.868650334702	714.4410182829157	1073.298875517828	
3941	26.26666666666667	2274.264439973295	1038.631704372113	862.8570267864746	2268.325050270981	33.58982901707206	931.7670116263077	2301.752693077742	41.67888164401208	886.3827428676741	2276.921309123085	83.2637100809214	925.0484370849425	2172.108118703917	1108.196448683784	809.1797674105138	2491.219993188577	71.72873065609052	983.9928057522013	2468.765506722793	44.59917711856808	872.1476126481475	2084.261497038291	1050.512350549884	918.9665846265715	2337.909374519945	163.9482723916531	866.1565049924698	2294.740078202805	166.8295643779428	894.0145050495595	2331.973941496786	241.0427800640401	842.6118682436628	2288.303020465353	248.6242448278531	872.5110131039987	2319.325861547543	606.6106736156349	816.1065261824888	2265.214180784676	583.9783883477013	859.4409066282622	2262.858286255479	700.0206348978212	798.397021332639	2213.476586874848	679.769724020224	841.2867316847543	2264.573568285749	1013.448510852394	1081.612498037724	1779.664635015083	190.5937087696025	1052.538390717333	1664.469354899963	346.1726423011676	1016.185063368959	1678.719059899169	331.9633159263837	1059.809698993141	1715.141803382672	351.3907844435011	1023.841183482447	2183.351242166562	1098.664163270758	1122.518664644128	1758.166764368295	130.8371280390218	1008.459034447281	1722.620522150875	165.3752461770781	1109.711283581238	2084.553546157524	1046.525862914402	1007.470018346907	1808.827719917121	346.8472860095313	1090.683553904057	1793.294408271882	380.2272955734384	1050.171931867567	1872.945525196996	395.4505016662332	1103.561148762461	1857.603536647547	426.5175659614022	1062.06842435622	2128.012269726069	588.5960299881849	1109.63365887773	2086.025677547107	599.340900635547	1049.4042247014	2123.874445257135	697.1776387316997	1129.3631215185	2082.533877267302	706.8406009095177	1073.198232409027	
3942	26.27333333333333	2274.136190437594	1033.86886163025	863.0670787543798	2252.714493767915	34.14185671414369	932.8668820701446	2286.395486112629	42.50353784131082	887.7472255117125	2262.850717950002	83.81697010444455	927.5866930940583	2172.468101686226	1102.293972316519	808.674976648358	2477.100540067319	65.49622682915597	986.2066045960245	2453.944451882133	41.94210871975491	873.1352073757714	2083.931740941378	1044.703178540226	919.6680700328295	2327.445583481067	160.8274307766484	869.0570983811931	2284.040167407081	165.0989583143676	896.3345210001301	2323.896285799499	237.9112597898321	845.0418418247087	2280.197221163258	246.8760887708565	874.5177512177269	2319.08244868772	602.4648758030254	816.8205696386964	2264.611396900985	579.7291668151862	859.7010456300591	2262.611636929168	695.7540213822443	798.630233909603	2212.735826980037	675.4706564522751	841.1107005586169	2265.040960710284	1008.502315650666	1081.507166324905	1786.011368581122	192.6906518716745	1055.528782999724	1669.432215454073	346.0799480669565	1015.349586732883	1683.858425566784	333.0827163223221	1059.283484436072	1720.109124637777	352.0947833198979	1022.98141431316	2183.132566145451	1092.491870347106	1122.805319353204	1765.418904698067	131.4887519150099	1012.889963551884	1729.471764462662	168.2282332874734	1113.28370806851	2084.550587823415	1039.94558589935	1007.8226320663	1815.095685439142	347.8244201853912	1090.954509761462	1800.554978044028	380.8469589348295	1049.831842455487	1880.019303687684	395.3944788028235	1103.644196038185	1865.684094936455	426.0156353929354	1061.521102613392	2134.33535727968	582.0575011986045	1110.68408171414	2092.827346979634	591.6999740002005	1049.982886001375	2128.252100028674	690.7001333982186	1129.625741134257	2087.208055406737	699.2832028005322	1073.057737066501	
